HIERARCHY
ROOT joint_0
{
	OFFSET 0.000000 0.000000 0.000000
	CHANNELS 6 Xposition Yposition Zposition Zrotation Yrotation Xrotation 
	JOINT joint_1
	{
		OFFSET -0.613770 -1.125488 108.300049
		CHANNELS 3 Zrotation Yrotation Xrotation
		JOINT joint_2
		{
			OFFSET -10.925537 -0.900513 98.259033
			CHANNELS 3 Zrotation Yrotation Xrotation
			JOINT joint_3
			{
				OFFSET -11.287842 0.313599 98.110962
				CHANNELS 3 Zrotation Yrotation Xrotation
				JOINT joint_4
				{
					OFFSET -2.124268 2.484680 136.491943
					CHANNELS 3 Zrotation Yrotation Xrotation
					JOINT joint_5
					{
						OFFSET 16.640869 1.801270 81.862061
						CHANNELS 3 Zrotation Yrotation Xrotation
						End Site
						{
							OFFSET 0.000000 0.000000 0.000000
						}
					}
				}
				JOINT joint_6
				{
					OFFSET 0.447998 -28.248108 77.258057
					CHANNELS 3 Zrotation Yrotation Xrotation
					JOINT joint_7
					{
						OFFSET 7.918701 -130.256348 -24.086060
						CHANNELS 3 Zrotation Yrotation Xrotation
						JOINT joint_8
						{
							OFFSET 62.431885 -29.384277 -258.572021
							CHANNELS 3 Zrotation Yrotation Xrotation
							JOINT joint_9
							{
								OFFSET 53.743164 -21.907532 -238.024963
								CHANNELS 3 Zrotation Yrotation Xrotation
								End Site
								{
									OFFSET 0.000000 0.000000 0.000000
								}
							}
						}
					}
				}
				JOINT joint_10
				{
					OFFSET -2.846924 31.052063 76.130981
					CHANNELS 3 Zrotation Yrotation Xrotation
					JOINT joint_11
					{
						OFFSET 9.073730 131.055603 -18.752930
						CHANNELS 3 Zrotation Yrotation Xrotation
						JOINT joint_12
						{
							OFFSET 52.981201 29.883301 -260.613037
							CHANNELS 3 Zrotation Yrotation Xrotation
							JOINT joint_13
							{
								OFFSET 62.237793 15.935547 -236.423035
								CHANNELS 3 Zrotation Yrotation Xrotation
								End Site
								{
									OFFSET 0.000000 0.000000 0.000000
								}
							}
						}
					}
				}
			}
		}
	}
	JOINT joint_14
	{
		OFFSET 22.046143 -72.816772 -98.122925
		CHANNELS 3 Zrotation Yrotation Xrotation
		JOINT joint_15
		{
			OFFSET -23.673828 -54.692932 -469.927032
			CHANNELS 3 Zrotation Yrotation Xrotation
			JOINT joint_16
			{
				OFFSET -34.875244 -46.505249 -395.890999
				CHANNELS 3 Zrotation Yrotation Xrotation
				JOINT joint_17
				{
					OFFSET 168.486328 14.224182 -74.182999
					CHANNELS 3 Zrotation Yrotation Xrotation
					End Site
					{
						OFFSET 0.000000 0.000000 0.000000
					}
				}
			}
		}
	}
	JOINT joint_18
	{
		OFFSET -1.731934 82.408569 -92.846924
		CHANNELS 3 Zrotation Yrotation Xrotation
		JOINT joint_19
		{
			OFFSET -6.908936 32.203369 -472.535034
			CHANNELS 3 Zrotation Yrotation Xrotation
			JOINT joint_20
			{
				OFFSET -13.963135 23.196533 -399.207993
				CHANNELS 3 Zrotation Yrotation Xrotation
				JOINT joint_21
				{
					OFFSET 168.417725 19.834229 -73.041004
					CHANNELS 3 Zrotation Yrotation Xrotation
					End Site
					{
						OFFSET 0.000000 0.000000 0.000000
					}
				}
			}
		}
	}
}
MOTION
Frames: 6
Frame Time: 0.016667
-3053.441650 987.894470 1059.348999 -1.934172 -2.181826 -1.932437 0.818028 1.291113 2.963797 0.429977 -0.275829 -0.644064 0.553570 0.283334 0.412526 0.149219 2.703443 -1.008705 0.000000 0.000000 0.000000 0.968120 3.371593 -0.447874 -0.110462 3.671772 1.170361 0.251071 0.256226 1.220465 0.000000 0.000000 0.000000 2.108589 -0.269579 -2.681618 -0.398602 -0.733415 -1.233696 0.243109 1.866908 0.450180 0.000000 0.000000 0.000000 -1.241318 -1.161368 6.265975 -0.999783 -0.493136 -0.042329 -1.324447 2.836458 -0.819937 0.000000 0.000000 0.000000 -0.114606 -2.459480 2.881349 0.217369 1.572669 -0.525979 0.250293 2.379929 -0.172058 0.000000 0.000000 0.000000 
-3053.508057 987.572144 1059.280029 -1.928771 -2.326268 -1.910803 0.821324 1.405323 2.960611 0.432272 -0.296816 -0.643917 0.555601 0.311172 0.411657 0.153239 2.725289 -1.030892 0.000000 0.000000 0.000000 0.990621 3.371542 -0.466443 -0.117578 3.676752 1.147049 0.248376 0.250204 1.206026 0.000000 0.000000 0.000000 2.101661 -0.279629 -2.693851 -0.395577 -0.742652 -1.239848 0.258137 1.834070 0.515746 0.000000 0.000000 0.000000 -1.255523 -1.010390 6.262884 -0.997552 -0.481189 -0.050799 -1.320148 2.822143 -0.816830 0.000000 0.000000 0.000000 -0.108507 -2.312383 2.880968 0.215050 1.589568 -0.534492 0.245739 2.364041 -0.172155 0.000000 0.000000 0.000000 
-3053.562256 987.257812 1059.198975 -1.924950 -2.490288 -1.883170 0.826616 1.547119 2.948012 0.437531 -0.322903 -0.640644 0.559910 0.346873 0.408475 0.157095 2.745874 -1.052164 0.000000 0.000000 0.000000 1.007950 3.365929 -0.482623 -0.123920 3.674974 1.124368 0.246773 0.246492 1.197397 0.000000 0.000000 0.000000 2.090093 -0.296902 -2.704879 -0.392387 -0.760209 -1.219241 0.258711 1.818352 0.521946 0.000000 0.000000 0.000000 -1.270462 -0.839018 6.251531 -0.994616 -0.465876 -0.058092 -1.314449 2.805648 -0.812930 0.000000 0.000000 0.000000 -0.100567 -2.145867 2.873220 0.213560 1.613172 -0.542463 0.241260 2.342169 -0.171516 0.000000 0.000000 0.000000 
-3053.589844 986.951660 1059.104980 -1.918895 -2.681674 -1.849012 0.831933 1.724097 2.926934 0.443445 -0.357153 -0.635357 0.564352 0.391682 0.403406 0.160688 2.766325 -1.072145 0.000000 0.000000 0.000000 1.023550 3.354654 -0.496939 -0.129380 3.667030 1.103054 0.245458 0.244464 1.190737 0.000000 0.000000 0.000000 2.074020 -0.319806 -2.716036 -0.389366 -0.783756 -1.184673 0.252382 1.814668 0.498825 0.000000 0.000000 0.000000 -1.288097 -0.636343 6.231673 -0.991378 -0.449145 -0.066085 -1.307879 2.784642 -0.808268 0.000000 0.000000 0.000000 -0.091667 -1.950183 2.857299 0.211229 1.641817 -0.549774 0.235313 2.314326 -0.170808 0.000000 0.000000 0.000000 
-3053.538818 986.652771 1058.987061 -1.896738 -2.941885 -1.803527 0.831114 1.976245 2.891262 0.443962 -0.404510 -0.628207 0.562903 0.453694 0.396937 0.163451 2.787559 -1.088059 0.000000 0.000000 0.000000 1.042909 3.334719 -0.514186 -0.132671 3.651321 1.088731 0.244935 0.242519 1.187630 0.000000 0.000000 0.000000 2.049038 -0.349502 -2.726482 -0.389375 -0.811983 -1.167714 0.255442 1.826170 0.507700 0.000000 0.000000 0.000000 -1.315646 -0.350915 6.197266 -0.989128 -0.432244 -0.077888 -1.300969 2.748541 -0.802179 0.000000 0.000000 0.000000 -0.082583 -1.676524 2.827492 0.203745 1.672707 -0.557844 0.223370 2.273991 -0.171215 0.000000 0.000000 0.000000 
-3053.411377 986.364014 1058.849976 -1.859233 -3.252783 -1.749186 0.821267 2.281419 2.842456 0.436326 -0.467919 -0.617975 0.552778 0.534258 0.390274 0.166297 2.817192 -1.105136 0.000000 0.000000 0.000000 1.054395 3.306433 -0.537464 -0.132409 3.626227 1.086120 0.244823 0.239847 1.185997 0.000000 0.000000 0.000000 2.021427 -0.379610 -2.733314 -0.393661 -0.838205 -1.185232 0.273434 1.849702 0.570509 0.000000 0.000000 0.000000 -1.351672 -0.001269 6.152226 -0.987803 -0.420069 -0.095182 -1.295515 2.708187 -0.796368 0.000000 0.000000 0.000000 -0.074531 -1.343100 2.786028 0.190780 1.701164 -0.565797 0.205931 2.229565 -0.173508 0.000000 0.000000 0.000000 
